<svg height="512pt" viewBox="0 -46 512 511" width="512pt" xmlns="http://www.w3.org/2000/svg"><path d="m450.214844 10.90625v230.246094c0 3.121094-1.371094 5.917968-3.546875 7.824218-1.832031 1.601563-4.226563 2.582032-6.859375 2.582032h-367.617188c-2.632812 0-5.027344-.980469-6.859375-2.582032-2.175781-1.90625-3.546875-4.703124-3.546875-7.824218v-230.246094c0-5.742188 4.660156-10.40625 10.40625-10.40625h367.617188c5.746094 0 10.40625 4.664062 10.40625 10.40625zm0 0" fill="#fdc26b"/><path d="m450.214844 10.90625v230.246094c0 3.121094-1.371094 5.917968-3.546875 7.824218-1.832031 1.601563-4.226563 2.582032-6.859375 2.582032h-8.011719v-145.691406c0-8.578126-9.242187-13.96875-16.703125-9.753907l-100.472656 56.769531-16.890625 9.554688h-.011719l-41.71875 23.570312-41.730469-23.582031-16.890625-9.542969-130.089844-73.503906c-3.402343-1.921875-5.503906-5.527344-5.503906-9.429687v-59.042969c0-5.746094 4.65625-10.40625 10.40625-10.40625h367.617188c5.75 0 10.40625 4.660156 10.40625 10.40625zm0 0" fill="#fcb54c"/><path d="m446.667969 248.976562c-1.832031 1.601563-4.226563 2.582032-6.859375 2.582032h-367.617188c-2.632812 0-5.027344-.980469-6.859375-2.582032l132.046875-96.09375 58.621094-42.644531 58.621094 42.644531 117.175781 85.269532zm0 0" fill="#fba72d"/><path d="m446.667969 248.976562c-1.832031 1.601563-4.226563 2.582032-6.859375 2.582032h-19.59375l-122.484375-89.121094h-.011719l-41.71875-30.367188-41.730469 30.355469-122.484375 89.132813h-19.59375c-2.632812 0-5.027344-.980469-6.859375-2.582032l132.046875-96.09375 58.621094-42.644531 58.621094 42.644531 117.175781 85.269532zm0 0" fill="#fa9a0f"/><path d="m314.613281 152.890625-58.613281-42.648437-58.613281 42.648437 58.613281 33.117187zm0 0" fill="#fa9a0f"/><path d="m450.214844 10.910156v41.152344c0 3.753906-2.019532 7.214844-5.289063 9.058594l-188.925781 106.753906-188.925781-106.75c-3.269531-1.847656-5.289063-5.308594-5.289063-9.0625v-41.152344c0-5.746094 4.660156-10.40625 10.40625-10.40625h367.613282c5.75 0 10.410156 4.660156 10.410156 10.40625zm0 0" fill="#fecf8a"/><path d="m345.578125 126.03125c0 49.472656-40.105469 89.578125-89.578125 89.578125s-89.578125-40.105469-89.578125-89.578125 40.105469-89.578125 89.578125-89.578125 89.578125 40.105469 89.578125 89.578125zm0 0" fill="#e1ebf0"/><path d="m310.6875 55.105469c11.6875 15.132812 18.65625 34.09375 18.65625 54.691406 0 49.472656-40.109375 89.578125-89.578125 89.578125-20.597656 0-39.558594-6.972656-54.691406-18.65625 16.382812 21.214844 42.050781 34.890625 70.925781 34.890625 49.472656 0 89.578125-40.105469 89.578125-89.578125 0-28.875-13.675781-54.542969-34.890625-70.925781zm0 0" fill="#b4d2d7"/><path d="m288.652344 98.21875c0 18.03125-14.617188 32.652344-32.652344 32.652344s-32.652344-14.621094-32.652344-32.652344c0-18.035156 14.617188-32.652344 32.652344-32.652344s32.652344 14.617188 32.652344 32.652344zm0 0" fill="#fed2a4"/><path d="m276.15625 143.945312h-40.308594c-22.265625 0-40.3125 18.046876-40.3125 40.3125v7.855469c15.9375 14.589844 37.160156 23.496094 60.464844 23.496094 23.308594 0 44.53125-8.90625 60.464844-23.496094v-7.855469c0-22.261718-18.046875-40.3125-40.308594-40.3125zm0 0" fill="#fed2a4"/><path d="m239.765625 199.371094c-16.09375 0-31.179687-4.261719-44.230469-11.691406v4.433593c15.933594 14.589844 37.160156 23.496094 60.464844 23.496094s44.53125-8.90625 60.464844-23.496094v-7.855469c0-7.367187-1.984375-14.265624-5.4375-20.210937-16.363282 21.464844-42.191406 35.324219-71.261719 35.324219zm0 0" fill="#ffbd86"/><path d="m396.382812 420.398438h-385.976562c-5.746094 0-10.40625-4.660157-10.40625-10.40625v-62.046876c0-5.746093 4.660156-10.40625 10.40625-10.40625h385.976562zm0 0" fill="#e1ebf0"/><path d="m365.863281 403.753906h-365.863281v6.238282c0 5.75 4.660156 10.40625 10.40625 10.40625h385.976562v-82.859376h-16.648437v52.339844c0 7.660156-6.210937 13.875-13.871094 13.875zm0 0" fill="#b4d2d7"/><path d="m396.382812 337.539062h105.210938c5.746094 0 10.40625 4.660157 10.40625 10.40625v62.046876c0 5.75-4.660156 10.40625-10.40625 10.40625h-105.210938zm0 0" fill="#7af4ab"/><path d="m481.480469 403.753906h-85.097657v16.644532h105.210938c5.746094 0 10.40625-4.65625 10.40625-10.40625v-62.046876c0-5.746093-4.660156-10.40625-10.40625-10.40625h-6.242188v52.339844c0 7.660156-6.210937 13.875-13.871093 13.875zm0 0" fill="#6ad394"/><g fill="#738c96"><path d="m102.117188 396.769531c-1.996094 0-3.992188-.761719-5.515626-2.285156-3.050781-3.046875-3.050781-7.992187 0-11.039063l19.617188-19.617187c3.046875-3.046875 7.988281-3.050781 11.039062 0 3.046876 3.046875 3.046876 7.988281 0 11.035156l-19.621093 19.621094c-1.523438 1.523437-3.519531 2.285156-5.519531 2.285156zm0 0"/><path d="m121.738281 396.769531c-1.996093 0-3.996093-.761719-5.519531-2.285156l-19.617188-19.621094c-3.050781-3.046875-3.050781-7.988281 0-11.035156 3.046876-3.046875 7.988282-3.050781 11.035157 0l19.621093 19.617187c3.046876 3.050782 3.046876 7.992188 0 11.039063-1.523437 1.523437-3.523437 2.285156-5.519531 2.285156zm0 0"/><path d="m42.550781 396.769531c-2 0-3.996093-.761719-5.519531-2.285156-3.046875-3.046875-3.046875-7.992187 0-11.039063l19.617188-19.617187c3.050781-3.046875 7.992187-3.046875 11.039062 0s3.046875 7.988281 0 11.035156l-19.621094 19.621094c-1.523437 1.523437-3.519531 2.285156-5.515625 2.285156zm0 0"/><path d="m62.167969 396.769531c-1.996094 0-3.996094-.761719-5.519531-2.285156l-19.617188-19.621094c-3.046875-3.046875-3.046875-7.988281 0-11.035156s7.988281-3.046875 11.035156 0l19.621094 19.617187c3.046875 3.050782 3.046875 7.992188 0 11.039063-1.523438 1.523437-3.523438 2.285156-5.519531 2.285156zm0 0"/><path d="m161.6875 396.769531c-1.996094 0-3.996094-.761719-5.519531-2.285156-3.046875-3.046875-3.046875-7.992187 0-11.039063l19.621093-19.617187c3.046876-3.046875 7.988282-3.050781 11.035157 0 3.046875 3.046875 3.046875 7.988281 0 11.035156l-19.617188 19.621094c-1.523437 1.523437-3.519531 2.285156-5.519531 2.285156zm0 0"/><path d="m181.304688 396.769531c-1.996094 0-3.992188-.761719-5.515626-2.285156l-19.621093-19.621094c-3.046875-3.046875-3.046875-7.988281 0-11.035156 3.050781-3.046875 7.992187-3.050781 11.039062 0l19.617188 19.617187c3.046875 3.050782 3.046875 7.992188 0 11.039063-1.523438 1.523437-3.519531 2.285156-5.519531 2.285156zm0 0"/><path d="m221.257812 396.769531c-1.996093 0-3.996093-.761719-5.519531-2.285156-3.046875-3.046875-3.046875-7.992187 0-11.039063l19.617188-19.617187c3.050781-3.046875 7.992187-3.050781 11.039062 0 3.046875 3.046875 3.046875 7.988281 0 11.035156l-19.617187 19.621094c-1.527344 1.523437-3.523438 2.285156-5.519532 2.285156zm0 0"/><path d="m240.875 396.769531c-1.996094 0-3.996094-.761719-5.519531-2.285156l-19.617188-19.621094c-3.046875-3.046875-3.046875-7.988281 0-11.035156s7.988281-3.050781 11.039063 0l19.617187 19.617187c3.046875 3.050782 3.046875 7.992188 0 11.039063-1.523437 1.523437-3.519531 2.285156-5.519531 2.285156zm0 0"/><path d="m280.824219 396.769531c-1.996094 0-3.992188-.761719-5.515625-2.285156-3.050782-3.046875-3.050782-7.992187 0-11.039063l19.617187-19.617187c3.050781-3.046875 7.992188-3.046875 11.039063 0s3.046875 7.988281 0 11.035156l-19.621094 19.621094c-1.523438 1.523437-3.519531 2.285156-5.519531 2.285156zm0 0"/><path d="m300.445312 397.515625c-1.996093 0-3.996093-.761719-5.519531-2.285156l-19.617187-19.621094c-3.050782-3.046875-3.050782-7.988281 0-11.035156 3.046875-3.050781 7.988281-3.050781 11.035156 0l19.621094 19.617187c3.046875 3.046875 3.046875 7.992188 0 11.039063-1.523438 1.523437-3.523438 2.285156-5.519532 2.285156zm0 0"/><path d="m340.394531 397.515625c-1.996093 0-3.992187-.761719-5.515625-2.285156-3.050781-3.050781-3.050781-7.992188 0-11.039063l19.617188-19.617187c3.046875-3.050781 7.988281-3.050781 11.035156 0 3.050781 3.046875 3.050781 7.988281 0 11.035156l-19.617188 19.621094c-1.523437 1.523437-3.519531 2.285156-5.519531 2.285156zm0 0"/><path d="m360.015625 397.515625c-2 0-3.996094-.761719-5.519531-2.285156l-19.617188-19.621094c-3.050781-3.046875-3.050781-7.988281 0-11.035156 3.046875-3.050781 7.988282-3.050781 11.035156 0l19.617188 19.617187c3.050781 3.046875 3.050781 7.992188 0 11.039063-1.523438 1.523437-3.519531 2.285156-5.515625 2.285156zm0 0"/></g><path d="m486.675781 374.382812-16.648437-16.648437c-3.046875-3.046875-7.988282-3.046875-11.035156 0-3.050782 3.050781-3.050782 7.992187 0 11.039063l3.320312 3.320312h-36.648438c-4.308593 0-7.804687 3.496094-7.804687 7.804688 0 4.3125 3.496094 7.808593 7.804687 7.808593h36.648438l-3.320312 3.320313c-3.050782 3.046875-3.050782 7.992187 0 11.039062 1.523437 1.523438 3.519531 2.285156 5.515624 2.285156 2 0 3.996094-.761718 5.519532-2.285156l16.648437-16.648437c3.046875-3.046875 3.046875-7.988281 0-11.035157zm0 0" fill="#e1ebf0"/></svg>